<svg xmlns="http://www.w3.org/2000/svg" width="390" height="690" viewBox="0 0 390 690"><rect x="7" y="7" width="376" height="676" rx="57" fill="#1f1f1f"/><rect x="18" y="18" width="354" height="654" rx="47" fill="#f8f8f5"/><rect x="141" y="29" width="108" height="25" rx="13" fill="#1f1f1f"/><text x="195" y="112" text-anchor="middle" font-family="Arial,sans-serif" font-size="15" font-weight="700" fill="#292929">Smart recovery QR</text><rect x="65" y="150" width="260" height="260" rx="25" fill="#fff" stroke="#e4e4df"/><g fill="#282828"><path d="M91 176h70v70H91zm18 18v34h34v-34zM229 176h70v70h-70zm18 18v34h34v-34zM91 314h70v70H91zm18 18v34h34v-34z"/><path d="M183 176h22v22h-22zm0 44h22v44h-22zm44 44h22v22h-22zm44 0h28v22h-28zm-88 44h44v22h-44zm66 22h50v54h-22v-22h-28zm-66 44h44v22h-44z"/></g><text x="195" y="457" text-anchor="middle" font-family="Arial,sans-serif" font-size="24" font-weight="700" fill="#292929">Bag QR is ready</text><text x="195" y="486" text-anchor="middle" font-family="Arial,sans-serif" font-size="13" fill="#777">Attach it and stay protected</text><rect x="52" y="535" width="286" height="53" rx="27" fill="#222"/><text x="195" y="568" text-anchor="middle" font-family="Arial,sans-serif" font-size="14" font-weight="700" fill="#fff">Download QR</text><text x="195" y="628" text-anchor="middle" font-family="Arial,sans-serif" font-size="11" fill="#999">Owner details remain private</text></svg>
