<svg xmlns="http://www.w3.org/2000/svg" width="390" height="690" viewBox="0 0 390 690"><rect x="7" y="7" width="376" height="676" rx="57" fill="#1f1f1f"/><rect x="18" y="18" width="354" height="654" rx="47" fill="#f8f8f5"/><rect x="141" y="29" width="108" height="25" rx="13" fill="#1f1f1f"/><text x="48" y="104" font-family="Arial,sans-serif" font-size="18" font-weight="700" fill="#292929">Khoya Paya</text><text x="48" y="150" font-family="Arial,sans-serif" font-size="30" font-weight="700" fill="#292929">Your items</text><rect x="42" y="180" width="306" height="132" rx="24" fill="#e9f3ec"/><circle cx="93" cy="235" r="27" fill="#fff"/><path d="M83 235l8 8 15-18" fill="none" stroke="#658371" stroke-width="5" stroke-linecap="round" stroke-linejoin="round"/><text x="135" y="228" font-family="Arial,sans-serif" font-size="16" font-weight="700" fill="#303030">Laptop Bag</text><text x="135" y="254" font-family="Arial,sans-serif" font-size="12" fill="#777">Protected · QR active</text><rect x="42" y="334" width="306" height="95" rx="20" fill="#fff" stroke="#e4e4df"/><text x="65" y="372" font-family="Arial,sans-serif" font-size="15" font-weight="700" fill="#303030">House Keys</text><text x="65" y="397" font-family="Arial,sans-serif" font-size="12" fill="#888">Safe at home</text><rect x="42" y="449" width="306" height="95" rx="20" fill="#fff" stroke="#e4e4df"/><text x="65" y="487" font-family="Arial,sans-serif" font-size="15" font-weight="700" fill="#303030">Pet Tag</text><text x="65" y="512" font-family="Arial,sans-serif" font-size="12" fill="#888">Protected · QR active</text><rect x="42" y="577" width="306" height="53" rx="27" fill="#222"/><text x="195" y="610" text-anchor="middle" font-family="Arial,sans-serif" font-size="14" font-weight="700" fill="#fff">Add an item</text></svg>
